<svg id="Layer_1" data-name="Layer 1" xmlns="http://www.w3.org/2000/svg" viewBox="0 0 32 32"><defs><style>.cls-1{fill:#55acee;}.cls-2{fill:#fff;}</style></defs><title>Twitter</title><rect class="cls-1" width="100%" height="100%"/><g id="_Group_" data-name="&lt;Group&gt;"><path class="cls-2" d="M27,9.3a9.37,9.37,0,0,1-2.26,2.34q0,0.32,0,.58a12.7,12.7,0,0,1-3.31,8.66,12.1,12.1,0,0,1-9.52,4.19A12.52,12.52,0,0,1,5,23a7.79,7.79,0,0,0,1.08.08,8.79,8.79,0,0,0,5.6-1.94,4.29,4.29,0,0,1-2.63-.9A4.43,4.43,0,0,1,7.46,18a4.64,4.64,0,0,0,.85.08A4.8,4.8,0,0,0,9.51,18,4.4,4.4,0,0,1,6,13.54V13.48A5.69,5.69,0,0,0,8,14a4.31,4.31,0,0,1-2-3.75A4.45,4.45,0,0,1,6.55,8a12.29,12.29,0,0,0,9.28,4.72,5.12,5.12,0,0,1-.11-1,4.51,4.51,0,0,1,4.51-4.51,4.33,4.33,0,0,1,3.29,1.43,9,9,0,0,0,2.87-1.11,4.38,4.38,0,0,1-2,2.51A9.23,9.23,0,0,0,27,9.3Z"/></g></svg>